<?xml version="1.0" encoding="iso-8859-1"?>
<!-- Generator: Adobe Illustrator 19.0.0, SVG Export Plug-In . SVG Version: 6.00 Build 0)  -->
<svg version="1.1" id="Capa_1" xmlns="http://www.w3.org/2000/svg" xmlns:xlink="http://www.w3.org/1999/xlink" x="0px" y="0px"
	 viewBox="0 0 496 496" style="enable-background:new 0 0 496 496;" xml:space="preserve">
<circle style="fill:#FFA64D;" cx="248" cy="208" r="176"/>
<g>
	<path style="fill:#333333;" d="M456,208C456,93.312,362.688,0,248,0S40,93.312,40,208c0,92.368,60.536,170.824,144,197.88V464h16
		v32h16v-32h64v32h16v-32h16v-58.12C395.464,378.824,456,300.368,456,208z M296,448h-96v-37.656c15.424,3.664,31.48,5.656,48,5.656
		s32.576-1.992,48-5.656V448z M248,400c-105.864,0-192-86.136-192-192S142.136,16,248,16s192,86.136,192,192S353.864,400,248,400z"
		/>
	<rect x="240" y="32" style="fill:#333333;" width="16" height="32"/>
	
		<rect x="159.996" y="53.424" transform="matrix(-0.866 0.5 -0.5 -0.866 348.1966 45.5469)" style="fill:#333333;" width="16" height="31.999"/>
	
		<rect x="101.428" y="111.984" transform="matrix(-0.5 0.866 -0.866 -0.5 274.9797 97.2105)" style="fill:#333333;" width="16" height="31.999"/>
	<rect x="72" y="200" style="fill:#333333;" width="32" height="16"/>
	
		<rect x="93.44" y="279.988" transform="matrix(-0.866 0.5 -0.5 -0.866 348.2145 482.6698)" style="fill:#333333;" width="31.999" height="16"/>
	
		<rect x="378.56" y="271.991" transform="matrix(-0.5 0.866 -0.866 -0.5 829.25 97.2214)" style="fill:#333333;" width="16" height="31.999"/>
	<rect x="392" y="200" style="fill:#333333;" width="32" height="16"/>
	
		<rect x="370.571" y="120.013" transform="matrix(-0.8661 0.4999 -0.4999 -0.8661 785.3677 45.6396)" style="fill:#333333;" width="32" height="16"/>
	
		<rect x="311.99" y="61.459" transform="matrix(-0.4999 0.8661 -0.8661 -0.4999 552.1075 -179.8877)" style="fill:#333333;" width="32" height="16"/>
	<path style="fill:#333333;" d="M118.056,232.24l3.88,15.52l98.096-24.52C225.472,233.168,235.904,240,248,240
		c17.648,0,32-14.352,32-32s-14.352-32-32-32c-17.56,0-31.832,14.224-31.976,31.744L118.056,232.24z M248,192
		c8.824,0,16,7.176,16,16s-7.176,16-16,16s-16-7.176-16-16S239.176,192,248,192z"/>
	<path style="fill:#333333;" d="M248,368c-43.312,0-83.896-17.096-114.288-48.128l-11.432,11.192C155.704,365.2,200.352,384,248,384
		s92.296-18.8,125.712-52.936l-11.432-11.192C331.896,350.904,291.312,368,248,368z"/>
</g>
<g>
</g>
<g>
</g>
<g>
</g>
<g>
</g>
<g>
</g>
<g>
</g>
<g>
</g>
<g>
</g>
<g>
</g>
<g>
</g>
<g>
</g>
<g>
</g>
<g>
</g>
<g>
</g>
<g>
</g>
</svg>
