<?xml version="1.0" encoding="iso-8859-1"?>
<!-- Generator: Adobe Illustrator 19.0.0, SVG Export Plug-In . SVG Version: 6.00 Build 0)  -->
<svg version="1.1" id="Layer_1" xmlns="http://www.w3.org/2000/svg" xmlns:xlink="http://www.w3.org/1999/xlink" x="0px" y="0px"
	 viewBox="0 0 512 512" style="enable-background:new 0 0 512 512;" xml:space="preserve">
<path style="fill:#FFB301;" d="M281.567,281.337c0,32.986-26.74,59.726-59.726,59.726h-4.351c-0.794,0.043-1.596,0.043-2.389,0
	l-3.242-0.427l-3.669-0.683l-2.986-0.853c-5.58-1.544-10.879-3.959-15.7-7.167c-1.28-0.776-2.5-1.63-3.669-2.56
	c-3.771-2.816-7.176-6.084-10.153-9.727c-1.024-1.195-1.962-2.474-2.901-3.754c-0.939-1.28,0,0,0,0
	c-1.57-2.355-2.995-4.804-4.266-7.338c-1.485-3.02-2.713-6.16-3.669-9.386h47.269c9.898,0.188,18.072-7.679,18.259-17.577
	c0-0.085,0-0.171,0-0.256c-0.017-4.607-2.005-8.985-5.461-12.031c-3.541-3.293-8.217-5.094-13.054-5.034h-47.269
	c0.956-3.225,2.184-6.365,3.669-9.386c1.271-2.534,2.696-4.983,4.266-7.338l0,0c0,0,1.877-2.56,2.901-3.754
	c2.978-3.643,6.382-6.911,10.153-9.727c1.169-0.93,2.389-1.783,3.669-2.56c4.744-3.311,9.991-5.845,15.529-7.508l2.986-0.853
	l3.669-0.683h3.242c0.794-0.043,1.596-0.043,2.389,0l4.778-0.853c3.925,0.017,7.833,0.392,11.689,1.109h0.683l5.375,1.365
	c1.877,0.597,3.754,1.28,5.546,2.048l5.205,2.474c10.153,5.555,18.507,13.908,24.061,24.061c1.817,3.447,3.336,7.039,4.522,10.751
	c0.52,1.621,0.947,3.276,1.28,4.949v1.109c0.29,1.468,0.486,2.944,0.597,4.437C281.234,276.371,281.49,278.845,281.567,281.337z"/>
<path style="fill:#2E7D32;" d="M503.408,127.755c0,65.972-53.481,119.453-119.453,119.453c-2.901,0-5.802,0-8.532,0
	s-5.546-0.512-8.532-0.939c-2.986-0.427-6.058-0.939-8.532-1.621c-2.474-0.683-4.778-1.109-7.082-1.792l0,0l-3.584-1.109
	c-2.005-0.597-3.968-1.305-5.887-2.133h-0.512c-2.645-1.024-5.29-2.133-7.935-3.413c-8.276-3.942-16.066-8.84-23.208-14.59
	c-28.805-22.628-45.631-57.226-45.648-93.856c0.009-5.708,0.41-11.408,1.195-17.065c0.947-6.536,2.423-12.986,4.437-19.283
	l1.28-3.754c0.452-1.706,0.998-3.387,1.621-5.034c0.597-1.451,1.195-2.986,1.877-4.351c0.683-1.63,1.45-3.225,2.304-4.778
	c0.597-1.28,1.28-2.56,1.962-3.754c3.165-5.572,6.817-10.853,10.921-15.785L293,50.452c0.99-1.305,2.073-2.534,3.242-3.669
	c1.024-1.195,2.133-2.304,3.242-3.413c1.109-1.109,2.218-2.218,3.413-3.242c8.498-7.986,18.165-14.633,28.669-19.71l4.778-2.218
	c1.613-0.768,3.268-1.45,4.949-2.048l5.034-1.792c6.689-2.244,13.575-3.865,20.563-4.863l0,0c2.594-0.538,5.213-0.939,7.85-1.195
	c0.452-0.085,0.913-0.085,1.365,0c2.645,0,5.205,0,7.85,0C449.927,8.302,503.408,61.783,503.408,127.755L503.408,127.755z"/>
<path style="fill:#4CAF50;" d="M469.279,127.755c-0.026,59.359-43.634,109.692-102.388,118.173c-2.986,0-6.058-0.939-8.532-1.621
	c-2.474-0.683-4.778-1.109-7.082-1.792l0,0l-3.584-1.109c-2.005-0.597-3.968-1.305-5.887-2.133h-0.512
	c-2.645-1.024-5.29-2.133-7.935-3.413c-8.259-3.84-16.049-8.618-23.208-14.249c-28.805-22.628-45.631-57.226-45.648-93.856
	c0.009-5.708,0.41-11.408,1.195-17.065c0.947-6.536,2.423-12.986,4.437-19.283l1.28-3.754c0.452-1.706,0.998-3.387,1.621-5.034
	c0.597-1.45,1.195-2.986,1.877-4.351c0.683-1.63,1.45-3.225,2.304-4.778c0.597-1.28,1.28-2.56,1.962-3.754
	c3.165-5.572,6.817-10.853,10.921-15.785L293,50.452c0.99-1.305,2.073-2.534,3.242-3.669c1.024-1.195,2.133-2.304,3.242-3.413
	c1.109-1.109,2.218-2.218,3.413-3.242c8.498-7.986,18.165-14.633,28.669-19.71l4.778-2.218c1.613-0.768,3.268-1.45,4.949-2.048
	l5.034-1.792c6.689-2.244,13.575-3.865,20.563-4.863l0,0C425.67,17.978,469.296,68.361,469.279,127.755z"/>
<path style="fill:#607D8B;" d="M310.15,221.61c-28.805-22.628-45.631-57.226-45.648-93.856c0.009-5.708,0.41-11.408,1.195-17.065
	H127.985c-9.428,0-17.065,7.636-17.065,17.065v136.517h53.668c0.956-3.225,2.184-6.365,3.669-9.386
	c1.271-2.534,2.696-4.983,4.266-7.338l0,0c0,0,1.877-2.56,2.901-3.754c2.978-3.643,6.382-6.911,10.153-9.727
	c1.169-0.93,2.389-1.783,3.669-2.56c4.744-3.311,9.991-5.845,15.529-7.508l2.986-0.853l3.669-0.683h3.242
	c0.794-0.043,1.596-0.043,2.389,0l4.778-0.853c3.925,0.017,7.833,0.392,11.689,1.109h0.683l5.375,1.365
	c1.877,0.597,3.754,1.28,5.546,2.048c1.809,0.666,3.549,1.493,5.205,2.474c10.153,5.555,18.507,13.908,24.061,24.061
	c1.817,3.447,3.336,7.039,4.522,10.751c0.52,1.621,0.947,3.276,1.28,4.949v1.109c0.29,1.468,0.486,2.944,0.597,4.437
	c0.435,2.449,0.691,4.932,0.768,7.423c0,32.986-26.74,59.726-59.726,59.726h-4.351c-0.794,0.043-1.596,0.043-2.389,0l-3.242-0.427
	l-3.669-0.683l-2.986-0.853c-5.58-1.544-10.879-3.959-15.7-7.167c-1.28-0.776-2.5-1.63-3.669-2.56
	c-3.771-2.816-7.176-6.084-10.153-9.727c-1.024-1.195-1.962-2.474-2.901-3.754c-0.939-1.28,0,0,0,0
	c-1.57-2.355-2.995-4.804-4.266-7.338c-1.485-3.02-2.713-6.16-3.669-9.386H110.92v186.944c0,9.428,7.636,17.065,17.065,17.065
	h187.711c9.428,0,17.065-7.636,17.065-17.065V235.603C324.724,231.807,317.138,227.114,310.15,221.61z M221.841,426.387h-1.536
	c-1.075,0.085-2.167,0.085-3.242,0l-2.816-0.768c-0.828-0.196-1.63-0.478-2.389-0.853l-1.451-0.683
	c-1.348-0.691-2.628-1.485-3.84-2.389c-3.78-2.628-6.732-6.263-8.532-10.495c-0.375-0.759-0.657-1.561-0.853-2.389
	c-1.596-4.94-1.596-10.247,0-15.188c0.196-0.828,0.478-1.63,0.853-2.389c0.93-2.304,2.227-4.428,3.84-6.314l1.365-1.536
	c0.921-0.998,1.954-1.886,3.072-2.645c1.212-0.904,2.491-1.698,3.84-2.389l1.45-0.683c0.759-0.375,1.561-0.657,2.389-0.853
	c0.913-0.333,1.86-0.589,2.816-0.768c1.647-0.427,3.336-0.717,5.034-0.853c14.138,0,25.597,11.459,25.597,25.597
	C247.438,414.928,235.979,426.387,221.841,426.387z"/>
<path style="fill:#CFD8DC;" d="M290.099,231.167c-4.906-2.858-9.607-6.049-14.078-9.556c-28.805-22.628-45.631-57.226-45.648-93.856
	c0.009-5.708,0.41-11.408,1.195-17.065H127.985c-9.428,0-17.065,7.636-17.065,17.065v136.517h53.668
	c0.956-3.225,2.184-6.365,3.669-9.386c1.271-2.534,2.696-4.983,4.266-7.338l0,0c0,0,1.877-2.56,2.901-3.754
	c2.978-3.643,6.382-6.911,10.153-9.727c1.169-0.93,2.389-1.783,3.669-2.56c4.744-3.311,9.991-5.845,15.529-7.508l2.986-0.853
	l3.669-0.683h3.242c0.794-0.043,1.596-0.043,2.389,0l4.778-0.853c3.925-0.009,7.841,0.367,11.689,1.109h0.683h1.28l4.096,1.109
	c1.903,0.52,3.763,1.203,5.546,2.048c1.809,0.666,3.549,1.493,5.205,2.474c10.213,5.478,18.583,13.848,24.061,24.061
	c1.928,3.396,3.447,7.005,4.522,10.751c0.52,1.621,0.947,3.276,1.28,4.949v1.109c0,0,0,0.597,0,0.939s0,2.304,0,3.498
	c0.648,2.517,1.109,5.085,1.365,7.679c0,32.986-26.74,59.726-59.726,59.726h-4.351c-0.794,0.043-1.596,0.043-2.389,0l-3.242-0.427
	l-3.669-0.683l-2.986-0.853c-5.58-1.544-10.879-3.959-15.7-7.167c-1.28-0.776-2.5-1.63-3.669-2.56
	c-3.771-2.816-7.176-6.084-10.153-9.727c-1.024-1.195-1.962-2.474-2.901-3.754c-0.939-1.28,0,0,0,0
	c-1.57-2.355-2.995-4.804-4.266-7.338c-1.485-3.02-2.713-6.16-3.669-9.386H110.92v186.944c0,9.428,7.636,17.065,17.065,17.065
	h153.582c9.428,0,17.065-7.636,17.065-17.065V245.842C298.598,239.784,295.347,234.196,290.099,231.167z M221.841,426.387h-1.536
	c-1.075,0.085-2.167,0.085-3.242,0l-2.816-0.768c-0.828-0.196-1.63-0.478-2.389-0.853l-1.451-0.683
	c-1.348-0.691-2.628-1.485-3.84-2.389c-3.78-2.628-6.732-6.263-8.532-10.495c-0.375-0.759-0.657-1.561-0.853-2.389
	c-1.596-4.94-1.596-10.247,0-15.188c0.196-0.828,0.478-1.63,0.853-2.389c0.93-2.304,2.227-4.428,3.84-6.314l1.365-1.536
	c0.921-0.998,1.954-1.886,3.072-2.645c1.212-0.904,2.491-1.698,3.84-2.389l1.45-0.683c0.759-0.375,1.561-0.657,2.389-0.853
	c0.913-0.333,1.86-0.589,2.816-0.768c1.647-0.427,3.336-0.717,5.034-0.853c14.138,0,25.597,11.459,25.597,25.597
	C247.438,414.928,235.979,426.387,221.841,426.387z"/>
<path style="fill:#FFB301;" d="M230.373,281.337c-0.461,9.795-8.712,17.406-18.515,17.065H27.048
	c-4.838,0.06-9.514-1.741-13.054-5.034c-3.456-3.046-5.444-7.423-5.461-12.031c0.461-9.795,8.712-17.406,18.515-17.065h184.81
	c4.838-0.06,9.514,1.741,13.054,5.034C228.368,272.352,230.356,276.729,230.373,281.337z"/>
<circle style="fill:#37474F;" cx="221.841" cy="400.789" r="25.597"/>
<path style="fill:#FFB301;" d="M332.761,102.158h102.388c9.428,0,17.065,7.636,17.065,17.065v51.194
	c0,9.428-7.636,17.065-17.065,17.065H332.761c-9.428,0-17.065-7.636-17.065-17.065v-51.194
	C315.697,109.803,323.333,102.158,332.761,102.158z"/>
<path style="fill:#FEC108;" d="M332.761,102.158h68.259c9.428,0,17.065,7.636,17.065,17.065v51.194
	c0,9.428-7.636,17.065-17.065,17.065h-68.259c-9.428,0-17.065-7.636-17.065-17.065v-51.194
	C315.697,109.803,323.333,102.158,332.761,102.158z"/>
<path d="M383.955,255.74c-3.157,0-6.314,0-9.386,0c-3.072,0-5.802-0.512-8.532-1.024s-6.485-1.024-9.642-1.792
	c-3.157-0.768-5.034-1.195-7.508-1.877l0,0l0,0l-3.925-1.195c-2.056-0.597-4.078-1.314-6.058-2.133l-1.195-0.512
	c-2.218-0.853-5.034-2.048-7.935-3.413c-45.059-21.058-73.839-66.305-73.805-116.04c0.009-6.109,0.435-12.21,1.28-18.259
	c1.015-7.005,2.611-13.908,4.778-20.648l1.365-4.096c0.666-1.971,1.433-3.908,2.304-5.802c0.683-1.706,1.28-3.157,1.962-4.522
	c0.725-1.749,1.553-3.464,2.474-5.119c0-0.939,1.195-2.474,1.962-3.84c3.276-6.007,7.073-11.715,11.348-17.065l3.072-3.669
	c1.101-1.425,2.295-2.764,3.584-4.01c0.768-0.853,1.962-2.133,3.242-3.413c1.28-1.28,2.56-2.56,3.925-3.669
	c9.061-8.473,19.36-15.52,30.546-20.904l4.949-2.389c1.869-0.794,3.771-1.476,5.717-2.048l5.034-1.792
	c7.159-2.483,14.522-4.309,22.013-5.461h0.683c2.56,0,5.205-0.597,7.764-0.768h2.133c2.645,0,5.205,0,7.935,0
	C454.722,0.299,512.009,57.61,512,128.292c-0.009,39.24-18.02,76.305-48.865,100.571
	C440.542,246.516,412.632,255.996,383.955,255.74z M353.495,234.409l6.314,1.621c2.816,0.683,5.631,1.109,8.532,1.536
	c2.901,0.427,5.119,0.683,7.679,0.853c2.56,0.171,5.461,0,8.106,0c61.092-0.094,110.605-49.573,110.75-110.664
	c0-61.262-49.658-110.92-110.92-110.92c-2.389,0-4.693,0-6.997,0h-1.536c-2.048,0-4.096,0-6.143,0.512h-1.45
	c-6.237,0.939-12.372,2.423-18.345,4.437l-4.778,1.706c-1.451,0.495-2.875,1.067-4.266,1.706l-4.607,2.133
	c-9.752,4.701-18.728,10.853-26.621,18.259c-1.28,1.109-2.304,2.133-3.242,3.072c-0.939,0.939-1.962,1.877-2.816,2.986
	c-1.007,0.99-1.945,2.039-2.816,3.157l-3.498,4.693c-3.694,4.599-6.979,9.505-9.812,14.676c-0.597,1.109-1.195,2.133-1.706,3.242
	c-0.785,1.468-1.502,2.978-2.133,4.522c-0.683,1.451-1.109,2.474-1.536,3.498l-0.512,1.195c-0.614,1.365-1.152,2.756-1.621,4.181
	l-1.195,3.584c-1.852,5.793-3.225,11.732-4.096,17.747c-0.751,5.171-1.152,10.392-1.195,15.614
	c0.017,42.832,24.693,81.817,63.395,100.17c2.474,1.195,4.863,2.218,7.252,3.157h0.939c1.613,0.691,3.268,1.288,4.949,1.792
	l3.413,1.109L353.495,234.409z"/>
<path d="M315.697,511.718H127.985c-14.112,0-25.597-11.485-25.597-25.597V299.178c0-4.718,3.822-8.532,8.532-8.532h53.924
	c3.771,0,7.107,2.483,8.174,6.101c0.819,2.756,1.877,5.469,3.148,8.046c1.058,2.099,2.261,4.181,3.592,6.203
	c0.956,1.305,1.647,2.236,2.398,3.106c2.662,3.259,5.572,6.041,8.78,8.447c1.075,0.853,2.014,1.51,2.995,2.099
	c4.36,2.892,8.814,4.923,13.532,6.229l8.754,1.732c-0.179-0.034,0.316-0.034,0.819-0.068h4.804
	c28.234,0,51.194-22.961,51.194-51.194c-0.06-1.826-0.273-3.891-0.631-5.939c-0.051-0.282-0.094-0.572-0.111-0.87
	c-0.085-1.143-0.239-2.278-0.461-3.387c-0.111-0.546-0.171-1.109-0.171-1.664v-0.222c-0.239-1.092-0.538-2.176-0.879-3.251
	c-1.024-3.183-2.346-6.34-3.942-9.351c-4.718-8.635-11.868-15.785-20.606-20.563c-1.459-0.853-2.739-1.459-4.07-1.954
	c-1.954-0.828-3.558-1.416-5.171-1.92l-4.01-1.007c-0.392-0.026-0.785-0.06-1.024-0.102c-3.106-0.58-6.271-0.896-9.42-0.956
	l-3.985,0.708c-0.64,0.111-1.297,0.154-1.945,0.119c-0.503-0.017-0.998-0.017-1.493,0l-2.892,0.009l-5.111,1.212
	c-4.582,1.374-8.985,3.507-12.986,6.297c-1.425,0.887-2.355,1.536-3.234,2.235c-3.413,2.56-6.322,5.341-8.857,8.447
	c-1.015,1.177-2.602,3.37-2.628,3.404c-1.169,1.758-2.415,3.899-3.524,6.118c-1.246,2.543-2.312,5.247-3.114,7.986
	c-1.067,3.626-4.403,6.118-8.183,6.118H110.92c-4.71,0-8.532-3.814-8.532-8.532V127.763c0-14.112,11.485-25.597,25.597-25.597
	h137.712c2.466,0,4.812,1.067,6.433,2.927c1.621,1.86,2.355,4.326,2.014,6.775c-0.725,5.264-1.101,10.614-1.109,15.904
	c0.026,34.215,15.469,65.981,42.389,87.132l0,0c6.493,5.102,13.549,9.471,20.981,12.978c2.978,1.416,4.889,4.42,4.889,7.722v250.509
	C341.294,500.234,329.809,511.718,315.697,511.718z M119.453,307.702v178.411c0,4.71,3.831,8.532,8.532,8.532h187.711
	c4.71,0,8.532-3.823,8.532-8.532V240.876c-6.809-3.584-13.302-7.79-19.36-12.56l0,0c-31.049-24.402-48.882-61.057-48.899-100.562
	c0-2.841,0.102-5.691,0.29-8.532H127.985c-4.701,0-8.532,3.831-8.532,8.532V255.74h39.087c0.631-1.561,1.314-3.106,2.065-4.625
	c1.459-2.901,3.072-5.691,4.829-8.319c0.205-0.299,2.346-3.2,3.515-4.565c3.285-4.027,7.201-7.781,11.527-11.015
	c1.246-0.99,2.764-2.056,4.36-3.02c5.034-3.532,11.075-6.45,17.5-8.379l7.543-1.749c0.52-0.094,1.041-0.145,1.561-0.145h3.242
	c0.435-0.026,1.067-0.043,1.775-0.026l3.891-0.7c0.512-0.085,1.007-0.111,1.544-0.137c4.215,0.017,8.447,0.41,12.594,1.143
	c0.657,0.043,1.391,0.119,1.834,0.23l5.375,1.365c2.619,0.819,4.77,1.604,6.809,2.483c1.86,0.674,4.078,1.724,6.169,2.961
	c11.365,6.212,20.862,15.7,27.21,27.321c2.116,4.002,3.831,8.08,5.162,12.235c0.614,1.954,1.126,3.908,1.519,5.887
	c0.111,0.546,0.171,1.109,0.171,1.664v0.316c0.247,1.374,0.427,2.773,0.538,4.172c0.469,2.722,0.742,5.486,0.828,8.225
	c0,37.892-30.623,68.515-68.259,68.515h-4.351c-0.64,0.051-1.749,0.043-2.841-0.009l-8.029-1.246l-3.754-1.032
	c-6.408-1.775-12.517-4.556-18.097-8.276c-1.271-0.768-2.79-1.826-4.232-2.969c-4.147-3.097-8.072-6.86-11.476-11.032
	c-1.015-1.177-2.073-2.611-3.123-4.036c-0.017-0.026-0.034-0.051-0.051-0.077c-0.085-0.119-0.171-0.23-0.247-0.358
	c-1.749-2.628-3.353-5.384-4.761-8.191c-0.751-1.544-1.451-3.097-2.09-4.676h-39.334V307.702z M218.726,434.987
	c-0.708,0-1.519-0.034-2.321-0.094c-0.538-0.043-1.075-0.137-1.604-0.282l-8.029-2.816c-0.896-0.418-1.8-0.913-2.679-1.476
	c-0.99-0.546-1.92-1.186-2.773-1.894c-4.923-3.524-8.763-8.328-11.135-13.891c-0.461-1.075-0.87-2.227-1.203-3.387
	c-2.073-6.399-2.073-13.464,0.085-20.145c0.256-0.896,0.666-2.031,1.135-3.14c1.203-2.995,2.986-5.904,5.205-8.498l1.459-1.638
	c1.323-1.442,2.722-2.671,4.241-3.746c0.853-0.7,1.766-1.322,2.73-1.852c0.853-0.546,1.732-1.032,2.645-1.476l4.642-1.869
	c1.323-0.486,2.73-0.87,4.164-1.126c1.493-0.427,3.695-0.794,5.896-0.964c0.017,0,0.034,0,0.051,0
	c19.462,0,34.744,15.298,34.744,34.104c0,18.822-15.307,34.129-34.129,34.129h-1.536
	C219.895,434.962,219.349,434.987,218.726,434.987z M218.394,417.914c0.435,0.009,0.845,0,1.254-0.034l2.193-0.017
	c9.411,0,17.065-7.654,17.065-17.065s-7.654-17.065-17.065-17.065c-0.529,0.068-1.706,0.264-2.867,0.563
	c-1.118,0.23-1.596,0.367-2.056,0.538l-3.174,1.246c-0.205,0.102-0.495,0.256-0.759,0.444c-0.307,0.196-0.623,0.392-0.947,0.555
	c-0.265,0.222-0.623,0.503-0.913,0.7c-0.606,0.418-1.152,0.887-1.613,1.391l-1.263,1.416c-0.913,1.067-1.724,2.398-2.312,3.848
	c-0.264,0.614-0.435,1.084-0.563,1.553c-1.126,3.507-1.126,6.945-0.077,10.205c0.213,0.742,0.384,1.195,0.572,1.63
	c1.186,2.79,3.106,5.154,5.563,6.86c0.282,0.196,0.546,0.41,0.802,0.631c0.282,0.154,0.674,0.384,0.939,0.555
	c0.264,0.179,0.538,0.333,0.819,0.469L218.394,417.914z"/>
<path d="M211.858,306.934H27.048c-6.877-0.026-13.49-2.645-18.515-7.338C3.191,295.023,0.077,288.367,0,281.337
	c0.418-14.531,12.517-25.981,27.048-25.597h184.81c7.022-0.085,13.805,2.543,18.942,7.338c5.188,4.65,8.131,11.297,8.106,18.259
	C238.487,295.867,226.389,307.318,211.858,306.934z M27.048,272.804c-5.077-0.299-9.488,3.464-9.983,8.532
	c0.026,2.193,0.99,4.275,2.645,5.717c1.988,1.852,4.616,2.867,7.338,2.816h184.81c5.077,0.299,9.488-3.464,9.983-8.532
	c-0.026-2.193-0.99-4.275-2.645-5.717c-1.988-1.852-4.616-2.867-7.338-2.816H27.048L27.048,272.804z"/>
<path d="M221.841,434.919c-18.848,0-34.129-15.281-34.129-34.129s15.281-34.129,34.129-34.129s34.129,15.281,34.129,34.129
	S240.689,434.919,221.841,434.919z M221.841,383.725c-9.428,0-17.065,7.636-17.065,17.065c0,9.428,7.636,17.065,17.065,17.065
	c9.428,0,17.065-7.636,17.065-17.065C238.905,391.361,231.269,383.725,221.841,383.725z"/>
<path d="M221.841,477.581c-4.71,0-8.532-3.822-8.532-8.532v-42.662c0-4.71,3.822-8.532,8.532-8.532s8.532,3.823,8.532,8.532v42.662
	C230.373,473.758,226.551,477.581,221.841,477.581z"/>
<path d="M145.05,153.352c-1.118-0.017-2.218-0.247-3.242-0.683c-1.032-0.435-1.988-1.041-2.816-1.792
	c-0.367-0.41-0.708-0.836-1.024-1.28c-0.324-0.478-0.58-0.99-0.768-1.536c-0.307-0.469-0.538-0.99-0.683-1.536
	c-0.043-0.572-0.043-1.135,0-1.706c0.017-1.118,0.247-2.218,0.683-3.242c0.785-2.133,2.474-3.822,4.607-4.607
	c3.174-1.34,6.843-0.631,9.3,1.792c0.751,0.828,1.357,1.783,1.792,2.816c0.435,1.024,0.666,2.125,0.683,3.242
	c0.043,0.572,0.043,1.135,0,1.706c-0.094,0.538-0.265,1.049-0.512,1.536c-0.188,0.546-0.444,1.058-0.768,1.536
	c-0.316,0.444-0.657,0.87-1.024,1.28l-1.28,1.024c-0.478,0.324-0.99,0.58-1.536,0.768l-1.706,0.683H145.05z"/>
<path d="M230.373,153.352h-59.726c-4.71,0-8.532-3.822-8.532-8.532c0-4.71,3.822-8.532,8.532-8.532h59.726
	c4.71,0,8.532,3.822,8.532,8.532C238.905,149.529,235.083,153.352,230.373,153.352z"/>
<path d="M435.149,196.013H332.761c-14.138,0-25.597-11.459-25.597-25.597v-51.194c0-14.138,11.459-25.597,25.597-25.597h102.388
	c14.138,0,25.597,11.459,25.597,25.597v51.194C460.746,184.554,449.287,196.013,435.149,196.013z M332.761,110.69
	c-4.71,0-8.532,3.822-8.532,8.532v51.194c0,4.71,3.823,8.532,8.532,8.532h102.388c4.71,0,8.532-3.822,8.532-8.532v-51.194
	c0-4.71-3.823-8.532-8.532-8.532H332.761z"/>
<path d="M418.085,110.69h-68.259c-4.71,0-8.532-3.822-8.532-8.532V85.093c0-23.558,19.104-42.662,42.662-42.662
	c23.558,0,42.662,19.104,42.662,42.662v5.034c0,4.351,0,9.556,0,11.86c0,4.71-3.823,8.532-8.532,8.532V110.69z M358.358,93.625
	h51.194v-8.532c0-14.138-11.459-25.597-25.597-25.597c-14.138,0-25.597,11.459-25.597,25.597V93.625z"/>
<path d="M383.955,161.884c-4.71,0-8.532-3.822-8.532-8.532v-17.065c0-4.71,3.823-8.532,8.532-8.532c4.71,0,8.532,3.822,8.532,8.532
	v17.065C392.488,158.062,388.665,161.884,383.955,161.884z"/>
<path d="M392.488,144.819h-17.065c-4.71,0-8.532-3.822-8.532-8.532s3.823-8.532,8.532-8.532h17.065c4.71,0,8.532,3.822,8.532,8.532
	S397.197,144.819,392.488,144.819z"/>
<g>
</g>
<g>
</g>
<g>
</g>
<g>
</g>
<g>
</g>
<g>
</g>
<g>
</g>
<g>
</g>
<g>
</g>
<g>
</g>
<g>
</g>
<g>
</g>
<g>
</g>
<g>
</g>
<g>
</g>
</svg>
