<?xml version="1.0" encoding="iso-8859-1"?>
<!-- Generator: Adobe Illustrator 19.0.0, SVG Export Plug-In . SVG Version: 6.00 Build 0)  -->
<svg version="1.1" id="Layer_1" xmlns="http://www.w3.org/2000/svg" xmlns:xlink="http://www.w3.org/1999/xlink" x="0px" y="0px"
	 viewBox="0 0 511.999 511.999" style="enable-background:new 0 0 511.999 511.999;" xml:space="preserve">
<path style="fill:#607D8B;" d="M435.032,145.408v102.305H256c22.14,0.043,43.855-6.13,62.661-17.818
	c3.836-2.379,7.536-4.97,11.083-7.758c8.508-6.684,16.079-14.485,22.507-23.189c15.013-20.478,23.104-45.202,23.104-70.59h42.627
	C427.402,128.357,435.032,135.996,435.032,145.408z"/>
<path style="fill:#CFD8DC;" d="M400.931,145.408v102.305H221.898c22.14,0.043,43.855-6.13,62.661-17.818
	c3.836-2.379,7.536-4.97,11.083-7.758c8.508-6.684,16.079-14.485,22.507-23.189c15.013-20.478,23.104-45.202,23.104-70.59h42.627
	C393.301,128.357,400.931,135.996,400.931,145.408z"/>
<path style="fill:#FDD834;" d="M375.355,128.357c0,25.389-8.091,50.112-23.104,70.59c-6.428,8.704-13.999,16.505-22.507,23.189
	c-3.547,2.788-7.247,5.38-11.083,7.758c-18.807,11.688-40.521,17.861-62.662,17.818c-5.703-0.009-11.398-0.409-17.051-1.194
	c-16.215-2.472-31.749-8.278-45.611-17.051c-3.836-2.379-7.536-4.97-11.083-7.758c-8.508-6.684-16.079-14.485-22.507-23.189
	c-38.79-53.301-27.025-127.949,26.275-166.739c15.636-11.373,33.795-18.79,52.926-21.586C244.601,9.411,250.296,9.01,256,9.002
	C321.918,9.002,375.355,62.439,375.355,128.357z"/>
<path style="fill:#FFEB3A;" d="M341.253,128.357c0,25.389-8.091,50.112-23.104,70.59c-6.428,8.704-13.999,16.505-22.507,23.189
	c-3.547,2.788-7.247,5.38-11.083,7.758c-13.862,8.773-29.395,14.578-45.611,17.051c-16.215-2.472-31.749-8.278-45.611-17.051
	c-3.836-2.379-7.536-4.97-11.083-7.758c-8.508-6.684-16.079-14.485-22.507-23.189c-39.004-53.139-27.537-127.838,25.61-166.842
	c15.798-11.595,34.204-19.114,53.591-21.91C297.68,18.678,341.27,69.021,341.253,128.357z"/>
<path style="fill:#F57C00;" d="M295.643,128.357c-3.35-6.062-7.673-11.535-12.788-16.198
	c-11.322-11.296-17.673-26.633-17.648-42.627v-2.387c0.222-5.26,1.108-10.478,2.643-15.516c-9.199,5.047-16.897,12.43-22.336,21.399
	c-1.969,3.112-3.598,6.428-4.859,9.889c-2.532,6.701-3.862,13.803-3.922,20.972c-0.043,0.171-0.043,0.341,0,0.512
	c0.026,11.816,3.487,23.368,9.975,33.249c-10.691-6.241-17.639-17.324-18.585-29.668c-5.848,3.419-10.887,8.074-14.749,13.641
	c-1.015,1.262-1.867,2.634-2.558,4.092c-3.981,7.042-6.044,15.013-5.968,23.104c-0.009,17.511,9.583,33.616,24.979,41.945l0,0
	c23.129,12.566,52.064,4.007,64.631-19.122c1.202-2.208,2.225-4.51,3.061-6.88c1.79-5.124,2.711-10.512,2.728-15.942
	C300.238,141.742,298.661,134.76,295.643,128.357z"/>
<path style="fill:#FF9801;" d="M272.624,143.277c-0.026,5.397-0.946,10.759-2.728,15.857c-6.13,17.358-21.68,29.66-39.984,31.629
	l0,0c-15.431-8.312-25.056-24.417-25.065-41.945c-0.051-8.099,2.038-16.07,6.053-23.104c0.691-1.458,1.543-2.83,2.558-4.092
	c3.811-5.55,8.79-10.205,14.578-13.641c0.946,12.345,7.895,23.428,18.585,29.668c-6.488-9.881-9.949-21.433-9.975-33.249
	c-0.043-0.171-0.043-0.341,0-0.512c0.06-7.17,1.39-14.271,3.922-20.972c2.933,8.841,7.903,16.872,14.493,23.445l0,0
	c5.141,4.646,9.463,10.12,12.788,16.198C270.987,129.022,272.616,136.098,272.624,143.277z"/>
<rect x="76.984" y="247.747" style="fill:#424242;" width="358.066" height="204.609"/>
<rect x="76.984" y="247.747" style="fill:#9E9E9E;" width="323.964" height="204.609"/>
<path style="fill:#607D8B;" d="M435.032,452.321v34.102c0,9.421-7.63,17.051-17.051,17.051H94.017
	c-9.421,0-17.051-7.63-17.051-17.051v-34.102H435.032z"/>
<g>
	<path style="fill:#CFD8DC;" d="M256,247.712H76.967V145.408c0-9.421,7.63-17.051,17.051-17.051h42.627
		c0,25.389,8.091,50.112,23.104,70.59c6.428,8.704,13.999,16.505,22.507,23.189c3.547,2.788,7.247,5.38,11.083,7.758
		C212.145,241.583,233.859,247.755,256,247.712z"/>
	<path style="fill:#CFD8DC;" d="M400.931,452.321v34.102c0.384,8.952-6.488,16.548-15.431,17.051H92.398
		c-8.943-0.503-15.815-8.099-15.431-17.051v-34.102H400.931z"/>
</g>
<g>
	<path style="fill:#37474F;" d="M159.748,198.947c-6.027,12.771-21.271,18.244-34.042,12.217
		c-12.771-6.027-18.244-21.271-12.217-34.042c4.229-8.96,13.248-14.672,23.155-14.664c1.722,0,3.436,0.171,5.115,0.512
		C145.664,175.903,151.751,188.069,159.748,198.947z"/>
	<path style="fill:#37474F;" d="M400.931,188.035c-0.034,14.127-11.509,25.551-25.636,25.516
		c-9.855-0.026-18.816-5.703-23.044-14.604c7.997-10.878,14.084-23.053,17.989-35.977c1.68-0.341,3.393-0.512,5.115-0.512
		C389.481,162.459,400.931,173.908,400.931,188.035z"/>
	<path style="fill:#37474F;" d="M141.589,94.256c-3.299,11.066-4.962,22.558-4.945,34.102h-34.102v-17.051
		c0-9.421,7.63-17.051,17.051-17.051H141.589z"/>
	<path style="fill:#37474F;" d="M409.456,111.306v17.051h-34.102c0.017-11.543-1.645-23.036-4.945-34.102h21.995
		C401.826,94.256,409.456,101.894,409.456,111.306z"/>
</g>
<path style="fill:#4527A0;" d="M119.594,281.814h272.812c4.706,0,8.525,3.819,8.525,8.525v119.355c0,4.706-3.819,8.525-8.525,8.525
	H119.594c-4.706,0-8.525-3.819-8.525-8.525V290.339C111.068,285.633,114.888,281.814,119.594,281.814z"/>
<path style="fill:#673AB7;" d="M119.594,281.814h238.711c4.706,0,8.525,3.819,8.525,8.525v119.355c0,4.706-3.819,8.525-8.525,8.525
	H119.594c-4.706,0-8.525-3.819-8.525-8.525V290.339C111.068,285.633,114.888,281.814,119.594,281.814z"/>
<path d="M417.982,511.999H94.017c-14.127,0-25.576-11.45-25.576-25.576V145.408c0-14.127,11.45-25.576,25.576-25.576h42.627
	c4.706,0,8.525,3.819,8.525,8.525c0,23.581,7.528,46.549,21.484,65.56c6.053,8.074,13.163,15.303,21.143,21.484
	c3.299,2.6,6.744,5.021,10.316,7.247c49.183,30.333,113.413,17.792,147.574-28.816c13.811-19.029,21.22-41.962,21.143-65.475
	c0-4.706,3.819-8.525,8.525-8.525h42.627c14.127,0,25.576,11.45,25.576,25.576v341.015
	C443.558,500.55,432.108,511.999,417.982,511.999z M94.017,136.883c-4.706,0-8.525,3.819-8.525,8.525v341.015
	c0,4.706,3.819,8.525,8.525,8.525h323.964c4.706,0,8.525-3.819,8.525-8.525V145.408c0-4.706-3.819-8.525-8.525-8.525H383.88
	c-1.62,24.238-10.103,47.503-24.468,67.095c-9.787,13.231-21.995,24.485-35.977,33.164c-41.178,25.423-93.182,25.423-134.36,0
	c-4.101-2.617-8.056-5.465-11.85-8.525c-9.088-7.161-17.17-15.499-24.042-24.809c-14.544-19.472-23.24-42.687-25.065-66.924
	L94.017,136.883L94.017,136.883z"/>
<rect x="76.984" y="239.221" width="349.54" height="17.051"/>
<rect x="76.984" y="443.83" width="349.54" height="17.051"/>
<path d="M136.644,222.136c-18.833,0-34.102-15.269-34.102-34.102s15.269-34.102,34.102-34.102c2.293,0,4.578,0.23,6.82,0.682
	c3.078,0.622,5.567,2.882,6.479,5.883c3.726,12.038,9.497,23.334,17.051,33.419c1.799,2.481,2.123,5.738,0.853,8.525
	C162.203,214.557,150.004,222.256,136.644,222.136z M135.451,170.984c-9.421,0.332-16.786,8.227-16.454,17.648
	c0.332,9.421,8.227,16.786,17.648,16.454c4.945,0,9.634-2.148,12.873-5.883C143.678,190.422,138.946,180.942,135.451,170.984z"/>
<path d="M375.355,222.136c-13.172-0.017-25.15-7.622-30.777-19.523c-1.27-2.788-0.946-6.044,0.853-8.525
	c7.553-10.086,13.325-21.382,17.051-33.419c0.912-3.001,3.402-5.26,6.479-5.883c2.097-0.486,4.237-0.767,6.394-0.853
	c18.833,0,34.102,15.269,34.102,34.102S394.187,222.136,375.355,222.136z M362.482,199.203c3.24,3.734,7.929,5.883,12.873,5.883
	c9.421,0.332,17.315-7.033,17.648-16.454c0.332-9.421-7.033-17.315-16.454-17.648C373.053,180.942,368.33,190.422,362.482,199.203z"
	/>
<path d="M136.644,136.883h-34.102c-4.706,0-8.525-3.819-8.525-8.525v-17.051c0-14.127,11.45-25.576,25.576-25.576h21.995
	c4.706-0.205,8.679,3.444,8.883,8.15c0.043,0.963-0.077,1.927-0.358,2.847c-3.18,10.247-4.842,20.904-4.945,31.629
	C145.17,133.072,141.35,136.883,136.644,136.883z M111.068,119.832h17.051c0.384-5.729,1.151-11.424,2.302-17.051h-10.827
	c-4.706,0-8.525,3.819-8.525,8.525V119.832z"/>
<path d="M409.456,136.883h-34.102c-4.706,0-8.525-3.819-8.525-8.525c0.009-10.708-1.543-21.365-4.604-31.629
	c-1.373-4.501,1.168-9.267,5.678-10.64c0.921-0.281,1.884-0.401,2.847-0.358h21.654c14.127,0,25.576,11.45,25.576,25.576v17.051
	C417.982,133.072,414.162,136.883,409.456,136.883z M383.88,119.832h17.051v-8.525c0-4.706-3.819-8.525-8.525-8.525h-11.083
	C382.559,108.399,383.411,114.103,383.88,119.832z"/>
<path d="M392.406,426.745H119.594c-9.421,0-17.051-7.63-17.051-17.051V290.339c0-9.421,7.63-17.051,17.051-17.051h272.812
	c9.421,0,17.051,7.63,17.051,17.051v119.355C409.456,419.115,401.826,426.745,392.406,426.745z M119.594,290.339v119.355h272.812
	V290.339H119.594z"/>
<path d="M225.052,392.644c-3.061,0.009-5.891-1.611-7.417-4.263c-6.812-10.529-8.389-23.615-4.263-35.466
	c1.057-2.498,2.344-4.894,3.836-7.161l1.108-1.79c1.176-1.995,2.063-4.152,2.643-6.394c0.878-3.41,0.878-6.991,0-10.401
	c-0.426-2.055-1.338-3.981-2.643-5.627c-3.18-3.487-2.933-8.883,0.554-12.063c3.487-3.18,8.883-2.933,12.063,0.554
	c3.206,3.726,5.456,8.176,6.565,12.959c1.603,6.206,1.603,12.72,0,18.926c-0.98,3.743-2.472,7.323-4.433,10.657l-1.279,2.046
	c-0.946,1.407-1.773,2.89-2.472,4.433c-2.046,6.991-0.921,14.536,3.069,20.631c2.31,4.075,0.904,9.25-3.154,11.595
	C227.985,392.098,226.544,392.567,225.052,392.644z"/>
<path d="M293.255,392.644c-3.061,0.009-5.891-1.611-7.417-4.263c-6.812-10.529-8.389-23.615-4.263-35.466
	c1.057-2.498,2.344-4.894,3.836-7.161l1.108-1.79c1.176-1.995,2.063-4.152,2.643-6.394c0.878-3.41,0.878-6.991,0-10.401
	c-0.426-2.055-1.338-3.981-2.643-5.627c-3.18-3.487-2.933-8.883,0.554-12.063c3.487-3.18,8.883-2.933,12.063,0.554
	c3.206,3.726,5.456,8.176,6.565,12.959c1.603,6.206,1.603,12.72,0,18.926c-0.98,3.743-2.472,7.323-4.433,10.657l-1.279,2.046
	c-0.946,1.407-1.773,2.89-2.472,4.433c-2.046,6.991-0.921,14.536,3.069,20.631c2.31,4.075,0.904,9.25-3.154,11.595
	C296.188,392.098,294.747,392.567,293.255,392.644z"/>
<path d="M259.154,392.644c-3.061,0.009-5.891-1.611-7.417-4.263c-6.812-10.529-8.389-23.615-4.263-35.466
	c1.057-2.498,2.344-4.894,3.836-7.161l1.108-1.79c1.176-1.995,2.063-4.152,2.643-6.394c0.878-3.41,0.878-6.991,0-10.401
	c-0.426-2.055-1.338-3.981-2.643-5.627c-3.18-3.487-2.933-8.883,0.554-12.063c3.487-3.18,8.883-2.933,12.063,0.554
	c3.206,3.726,5.456,8.176,6.565,12.959c1.603,6.206,1.603,12.72,0,18.926c-0.98,3.743-2.472,7.323-4.433,10.657l-1.279,2.046
	c-0.946,1.407-1.773,2.89-2.472,4.433c-2.046,6.991-0.921,14.536,3.069,20.631c2.31,4.075,0.904,9.25-3.154,11.595
	C262.087,392.098,260.646,392.567,259.154,392.644z"/>
<path d="M256,256.238c-23.735,0.034-47.009-6.582-67.18-19.097c-4.101-2.617-8.056-5.465-11.85-8.525
	c-9.088-7.161-17.17-15.499-24.042-24.809c-23.743-32.294-30.973-73.864-19.523-112.279
	c20.094-67.709,91.273-106.303,158.981-86.209c54.435,16.156,91.69,66.268,91.494,123.038c0.009,27.196-8.653,53.684-24.724,75.62
	c-9.787,13.231-21.995,24.485-35.977,33.164C303.008,249.665,279.743,256.28,256,256.238z M256,17.527
	c-61.212,0-110.83,49.618-110.83,110.83c0,23.581,7.528,46.549,21.484,65.56c6.053,8.074,13.163,15.303,21.143,21.484
	c3.299,2.6,6.744,5.021,10.316,7.247c49.183,30.333,113.413,17.792,147.574-28.816c20.589-27.938,26.898-63.906,17.051-97.189
	C348.466,49.642,305.123,17.51,256,17.527z"/>
<path d="M252.589,205.086c-31.075-0.051-56.225-25.286-56.174-56.361c0.034-19.677,10.341-37.904,27.187-48.075
	c1.39-0.895,3.035-1.313,4.689-1.194c0.784-10.904,4.177-21.458,9.889-30.777c6.266-10.205,15.081-18.611,25.576-24.383
	c4.118-2.285,9.31-0.793,11.586,3.325c1.125,2.029,1.373,4.433,0.691,6.65c-1.313,4.314-2.063,8.79-2.217,13.3v1.876
	c-0.06,13.734,5.414,26.915,15.175,36.574l0,0c5.686,5.243,10.444,11.407,14.067,18.244c6.454,13.479,7.281,28.969,2.302,43.053
	C297.535,189.808,276.401,204.932,252.589,205.086z M223.092,123.071c-14.195,16.36-12.439,41.126,3.922,55.321
	c16.36,14.195,41.126,12.439,55.321-3.922c10.299-11.867,12.515-28.748,5.635-42.874c-2.907-5.209-6.65-9.898-11.083-13.896l0,0
	c-12.234-12.234-19.37-28.662-19.949-45.952c-1.432,1.79-2.737,3.666-3.922,5.627c-10.409,17.145-10.009,38.748,1.023,55.5
	c3.461,3.248,3.632,8.687,0.384,12.149s-8.687,3.632-12.149,0.384c-8.679-5.149-15.448-12.993-19.267-22.336H223.092z"/>
<g>
</g>
<g>
</g>
<g>
</g>
<g>
</g>
<g>
</g>
<g>
</g>
<g>
</g>
<g>
</g>
<g>
</g>
<g>
</g>
<g>
</g>
<g>
</g>
<g>
</g>
<g>
</g>
<g>
</g>
</svg>
