<?xml version="1.0" encoding="iso-8859-1"?>
<!-- Generator: Adobe Illustrator 19.0.0, SVG Export Plug-In . SVG Version: 6.00 Build 0)  -->
<svg version="1.1" id="Layer_1" xmlns="http://www.w3.org/2000/svg" xmlns:xlink="http://www.w3.org/1999/xlink" x="0px" y="0px"
	 viewBox="0 0 512.001 512.001" style="enable-background:new 0 0 512.001 512.001;" xml:space="preserve">
<path style="fill:#00838F;" d="M315.735,262.315V68.267c0-32.99-26.743-59.733-59.733-59.733s-59.733,26.743-59.733,59.733v194.048
	c-10.095,5.35-19.447,12.006-27.819,19.797c-25.796,24.192-40.439,57.984-40.448,93.355c0,8.047,0.742,16.068,2.219,23.979
	c15.753,17.485,38.246,27.392,61.781,27.221c6.545,0.009,13.073-0.734,19.456-2.219c17.519-3.977,33.212-13.705,44.544-27.648
	c3.115-3.857,6.605-7.398,10.411-10.581c15.027-12.553,34.014-19.388,53.589-19.285c9.557-0.009,19.055,1.604,28.075,4.779
	c13.261,4.608,25.045,12.681,34.133,23.381c1.075-6.494,1.673-13.047,1.792-19.627C383.984,328.013,357.71,284.459,315.735,262.315z
	"/>
<g>
	<path style="fill:#00BCD4;" d="M348.076,371.712c-9.02-3.174-18.517-4.787-28.075-4.779c-19.575-0.102-38.562,6.733-53.589,19.285
		c-3.806,3.183-7.296,6.724-10.411,10.581c-11.332,13.943-27.025,23.671-44.544,27.648c-6.383,1.485-12.911,2.227-19.456,2.219
		c-23.535,0.171-46.029-9.737-61.781-27.221c-1.476-7.91-2.219-15.932-2.219-23.979c0.009-35.371,14.643-69.163,40.448-93.355
		c8.371-7.791,17.724-14.447,27.819-19.797V68.267c-0.111-15.71,6.025-30.814,17.067-41.984c2.816-0.503,5.675-0.734,8.533-0.683
		c32.99,0,59.733,26.743,59.733,59.733v194.048C316.972,298.078,341.565,332.237,348.076,371.712z"/>
	<path style="fill:#00BCD4;" d="M349.868,392.533c-0.009,6.571-0.495,13.124-1.451,19.627
		c-15.727-18.082-38.588-28.373-62.549-28.16c-6.545-0.009-13.073,0.734-19.456,2.219c15.027-12.553,34.014-19.388,53.589-19.285
		c9.557-0.009,19.055,1.604,28.075,4.779C349.279,378.59,349.885,385.553,349.868,392.533z"/>
</g>
<path style="fill:#D84315;" d="M382.551,395.093c-10.65,69.888-75.947,117.905-145.826,107.247
	c-51.26-7.817-92.74-45.781-105.054-96.154c-0.512-2.219-1.024-4.437-1.451-6.741c2.62,3.063,5.47,5.914,8.533,8.533
	c15.027,12.254,33.86,18.867,53.248,18.688c24.747,0.213,48.265-10.761,64-29.867s39.253-30.08,64-29.867
	C343.929,366.899,366.713,377.156,382.551,395.093z"/>
<path style="fill:#FF5722;" d="M346.199,378.027c-9.685,62.396-63.411,108.407-126.549,108.373
	c-12.041,0.043-24.03-1.655-35.584-5.035c-26.112-17.766-44.766-44.527-52.395-75.179c2.389,0.683,4.864,1.28,7.424,1.792
	c14.933,12.177,33.638,18.79,52.907,18.688c24.747,0.213,48.265-10.761,64-29.867s39.253-30.08,64-29.867
	c5.53-0.026,11.051,0.521,16.469,1.621C340.021,371.379,343.28,374.554,346.199,378.027z"/>
<path d="M256.002,512c-65.545,0.017-121.856-46.549-134.144-110.933c-0.811-4.642,2.295-9.062,6.938-9.873
	c2.859-0.495,5.777,0.486,7.74,2.62c14.157,15.667,34.347,24.525,55.467,24.32c22.178,0.265,43.273-9.566,57.344-26.709
	c32.606-39.023,90.675-44.22,129.698-11.605c3.575,2.987,6.912,6.238,9.993,9.728c1.613,1.886,2.33,4.378,1.963,6.827
	C380.921,463.07,323.458,512.29,256.002,512z M146.519,423.339c26.3,60.51,96.674,88.243,157.184,61.952
	c36.352-15.795,62.498-48.597,69.803-87.552c-29.133-29.517-76.681-29.824-106.197-0.691c-1.655,1.638-3.243,3.345-4.736,5.129
	c-17.297,21.146-43.255,33.289-70.571,33.024C176.078,435.217,160.411,431.138,146.519,423.339z"/>
<path d="M192.002,435.2c-26.018,0.196-50.876-10.769-68.267-30.123c-1.041-1.152-1.749-2.569-2.048-4.096
	c-1.519-8.422-2.261-16.956-2.219-25.515c0.017-48.759,26.044-93.807,68.267-118.187V68.267c0-37.7,30.566-68.267,68.267-68.267
	s68.267,30.566,68.267,68.267V257.28c42.223,24.38,68.25,69.427,68.267,118.187c0,6.997-0.512,13.986-1.536,20.907
	c-0.7,4.659-5.043,7.868-9.711,7.168c-2.039-0.307-3.891-1.34-5.222-2.901c-27.537-30.95-74.948-33.715-105.899-6.178
	c-2.688,2.389-5.197,4.966-7.509,7.714C245.343,423.347,219.351,435.499,192.002,435.2z M138.156,395.52
	c14.089,14.601,33.553,22.775,53.845,22.613c22.178,0.265,43.273-9.566,57.344-26.709c17.314-21.171,43.307-33.323,70.656-33.024
	c19.994-0.102,39.475,6.34,55.467,18.347c0,0,0-0.853,0-1.28c-0.043-44.279-24.576-84.907-63.744-105.557
	c-2.773-1.476-4.514-4.361-4.523-7.509V68.267c0-28.279-22.921-51.2-51.2-51.2s-51.2,22.921-51.2,51.2v194.048
	c-0.009,3.149-1.749,6.033-4.523,7.509c-39.194,20.668-63.727,61.329-63.744,105.643C136.526,382.182,137.064,388.89,138.156,395.52
	z"/>
<path d="M315.735,145.067h-51.2c-4.71,0-8.533-3.823-8.533-8.533s3.823-8.533,8.533-8.533h51.2c4.71,0,8.533,3.823,8.533,8.533
	S320.445,145.067,315.735,145.067z"/>
<path d="M315.735,179.2h-51.2c-4.71,0-8.533-3.823-8.533-8.533s3.823-8.533,8.533-8.533h51.2c4.71,0,8.533,3.823,8.533,8.533
	S320.445,179.2,315.735,179.2z"/>
<path d="M315.735,213.333h-51.2c-4.71,0-8.533-3.823-8.533-8.533c0-4.71,3.823-8.533,8.533-8.533h51.2
	c4.71,0,8.533,3.823,8.533,8.533C324.268,209.51,320.445,213.333,315.735,213.333z"/>
<path d="M315.735,247.467h-51.2c-4.71,0-8.533-3.823-8.533-8.533s3.823-8.533,8.533-8.533h51.2c4.71,0,8.533,3.823,8.533,8.533
	S320.445,247.467,315.735,247.467z"/>
<path d="M123.906,405.163l-2.133-2.56l12.885-11.264l1.963,2.304L123.906,405.163z"/>
<path d="M377.516,402.347l-0.683-0.768l11.776-12.459l1.536,1.707L377.516,402.347z"/>
<path d="M230.402,76.8c-4.71,0-8.533-3.823-8.533-8.533c0-18.85,15.283-34.133,34.133-34.133c4.71,0,8.533,3.823,8.533,8.533
	s-3.823,8.533-8.533,8.533c-9.429,0-17.067,7.637-17.067,17.067C238.935,72.977,235.112,76.8,230.402,76.8z"/>
<path d="M162.135,387.328c-4.548,0.009-8.303-3.558-8.533-8.107c0-1.621,0-2.56,0-3.413c-0.085-38.059,20.949-73.028,54.613-90.795
	c4.122-2.287,9.318-0.802,11.605,3.311c2.287,4.113,0.802,9.318-3.311,11.605c-0.119,0.068-0.23,0.128-0.358,0.188
	c-27.938,14.754-45.44,43.75-45.483,75.349c0,0.939,0,1.707,0,2.816c0.009,4.548-3.558,8.303-8.107,8.533L162.135,387.328z"/>
<g>
</g>
<g>
</g>
<g>
</g>
<g>
</g>
<g>
</g>
<g>
</g>
<g>
</g>
<g>
</g>
<g>
</g>
<g>
</g>
<g>
</g>
<g>
</g>
<g>
</g>
<g>
</g>
<g>
</g>
</svg>
